<svg width="100%" height="100%" id="svg" viewBox="0 0 1440 390" xmlns="http://www.w3.org/2000/svg" class="transition duration-300 ease-in-out delay-150"><defs><linearGradient id="gradient" x1="0%" y1="50%" x2="100%" y2="50%"><stop offset="5%" stop-color="#8ed1fc"></stop><stop offset="95%" stop-color="#8ED1FC"></stop></linearGradient></defs><path d="M 0,400 L 0,100 C 81.61538461538461,85.63846153846154 163.23076923076923,71.27692307692307 244,70 C 324.7692307692308,68.72307692307693 404.69230769230774,80.53076923076922 481,82 C 557.3076923076923,83.46923076923078 630,74.6 718,82 C 806,89.4 909.3076923076924,113.06923076923078 986,120 C 1062.6923076923076,126.93076923076922 1112.7692307692307,117.12307692307691 1184,111 C 1255.2307692307693,104.87692307692309 1347.6153846153848,102.43846153846155 1440,100 L 1440,400 L 0,400 Z" stroke="none" stroke-width="0" fill="url(#gradient)" fill-opacity="0.53" class="transition-all duration-300 ease-in-out delay-150 path-0"></path><defs><linearGradient id="gradient" x1="0%" y1="50%" x2="100%" y2="50%"><stop offset="5%" stop-color="#8ed1fc"></stop><stop offset="95%" stop-color="#8ED1FC"></stop></linearGradient></defs><path d="M 0,400 L 0,233 C 70.78974358974361,244.66923076923078 141.57948717948722,256.33846153846156 222,269 C 302.4205128205128,281.66153846153844 392.47179487179494,295.31538461538463 485,280 C 577.5282051282051,264.68461538461537 672.5333333333334,220.4 758,213 C 843.4666666666666,205.6 919.3948717948717,235.08461538461535 984,243 C 1048.6051282051283,250.91538461538465 1101.8871794871795,237.2615384615385 1176,232 C 1250.1128205128205,226.7384615384615 1345.0564102564103,229.86923076923074 1440,233 L 1440,400 L 0,400 Z" stroke="none" stroke-width="0" fill="url(#gradient)" fill-opacity="1" class="transition-all duration-300 ease-in-out delay-150 path-1"></path></svg>
